<mxfile host="app.diagrams.net" modified="2021-07-01T09:30:46.917Z" agent="5.0 (Macintosh; Intel Mac OS X 10_15_7) AppleWebKit/537.36 (KHTML, like Gecko) Chrome/91.0.4472.114 Safari/537.36" etag="RxgZKGpE31zBtb_IFhSB" version="14.8.3" type="github">
  <diagram id="kgpKYQtTHZ0yAKxKKP6v" name="Page-1">
    <mxGraphModel dx="1113" dy="593" grid="1" gridSize="10" guides="1" tooltips="1" connect="1" arrows="1" fold="1" page="1" pageScale="1" pageWidth="850" pageHeight="1100" math="0" shadow="0">
      <root>
        <mxCell id="0" />
        <mxCell id="1" parent="0" />
        <mxCell id="KDhxscUa-E_bTq_1S6e4-1" value="" style="shape=cylinder3;whiteSpace=wrap;html=1;boundedLbl=1;backgroundOutline=1;size=15;" vertex="1" parent="1">
          <mxGeometry x="365" y="170" width="60" height="80" as="geometry" />
        </mxCell>
        <mxCell id="KDhxscUa-E_bTq_1S6e4-2" value="" style="shape=cylinder3;whiteSpace=wrap;html=1;boundedLbl=1;backgroundOutline=1;size=15;" vertex="1" parent="1">
          <mxGeometry x="430" y="170" width="60" height="80" as="geometry" />
        </mxCell>
        <mxCell id="KDhxscUa-E_bTq_1S6e4-9" style="edgeStyle=orthogonalEdgeStyle;rounded=0;orthogonalLoop=1;jettySize=auto;html=1;startArrow=block;startFill=1;endArrow=block;endFill=1;" edge="1" parent="1" source="KDhxscUa-E_bTq_1S6e4-3" target="KDhxscUa-E_bTq_1S6e4-6">
          <mxGeometry relative="1" as="geometry" />
        </mxCell>
        <mxCell id="KDhxscUa-E_bTq_1S6e4-3" value="" style="shape=cylinder3;whiteSpace=wrap;html=1;boundedLbl=1;backgroundOutline=1;size=15;" vertex="1" parent="1">
          <mxGeometry x="405" y="190" width="60" height="80" as="geometry" />
        </mxCell>
        <mxCell id="KDhxscUa-E_bTq_1S6e4-6" value="" style="whiteSpace=wrap;html=1;aspect=fixed;" vertex="1" parent="1">
          <mxGeometry x="380" y="370" width="80" height="80" as="geometry" />
        </mxCell>
        <mxCell id="KDhxscUa-E_bTq_1S6e4-7" value="" style="whiteSpace=wrap;html=1;aspect=fixed;" vertex="1" parent="1">
          <mxGeometry x="390" y="380" width="80" height="80" as="geometry" />
        </mxCell>
        <mxCell id="KDhxscUa-E_bTq_1S6e4-11" style="edgeStyle=orthogonalEdgeStyle;rounded=0;orthogonalLoop=1;jettySize=auto;html=1;exitX=1;exitY=0.5;exitDx=0;exitDy=0;startArrow=block;startFill=1;endArrow=block;endFill=1;strokeColor=#000000;" edge="1" parent="1" source="KDhxscUa-E_bTq_1S6e4-8" target="KDhxscUa-E_bTq_1S6e4-10">
          <mxGeometry relative="1" as="geometry" />
        </mxCell>
        <mxCell id="KDhxscUa-E_bTq_1S6e4-8" value="MAIN &lt;br&gt;SERVER" style="whiteSpace=wrap;html=1;aspect=fixed;" vertex="1" parent="1">
          <mxGeometry x="400" y="390" width="80" height="80" as="geometry" />
        </mxCell>
        <mxCell id="KDhxscUa-E_bTq_1S6e4-10" value="AUTHENTICATION" style="rounded=1;whiteSpace=wrap;html=1;" vertex="1" parent="1">
          <mxGeometry x="590" y="180" width="120" height="60" as="geometry" />
        </mxCell>
        <mxCell id="KDhxscUa-E_bTq_1S6e4-30" style="edgeStyle=orthogonalEdgeStyle;rounded=0;orthogonalLoop=1;jettySize=auto;html=1;startArrow=block;startFill=1;endArrow=block;endFill=1;strokeColor=#000000;" edge="1" parent="1" source="KDhxscUa-E_bTq_1S6e4-12">
          <mxGeometry relative="1" as="geometry">
            <mxPoint x="140" y="530" as="targetPoint" />
          </mxGeometry>
        </mxCell>
        <mxCell id="KDhxscUa-E_bTq_1S6e4-12" value="MICROSERVICE" style="rounded=1;whiteSpace=wrap;html=1;" vertex="1" parent="1">
          <mxGeometry x="80" y="570" width="120" height="60" as="geometry" />
        </mxCell>
        <mxCell id="KDhxscUa-E_bTq_1S6e4-31" style="edgeStyle=orthogonalEdgeStyle;rounded=0;orthogonalLoop=1;jettySize=auto;html=1;startArrow=block;startFill=1;endArrow=block;endFill=1;strokeColor=#000000;" edge="1" parent="1">
          <mxGeometry relative="1" as="geometry">
            <mxPoint x="340" y="530" as="targetPoint" />
            <mxPoint x="340" y="570" as="sourcePoint" />
          </mxGeometry>
        </mxCell>
        <mxCell id="KDhxscUa-E_bTq_1S6e4-32" style="edgeStyle=orthogonalEdgeStyle;rounded=0;orthogonalLoop=1;jettySize=auto;html=1;startArrow=block;startFill=1;endArrow=block;endFill=1;strokeColor=#000000;" edge="1" parent="1">
          <mxGeometry relative="1" as="geometry">
            <mxPoint x="540" y="530" as="targetPoint" />
            <mxPoint x="540" y="570" as="sourcePoint" />
          </mxGeometry>
        </mxCell>
        <mxCell id="KDhxscUa-E_bTq_1S6e4-33" style="edgeStyle=orthogonalEdgeStyle;rounded=0;orthogonalLoop=1;jettySize=auto;html=1;startArrow=block;startFill=1;endArrow=block;endFill=1;strokeColor=#000000;" edge="1" parent="1">
          <mxGeometry relative="1" as="geometry">
            <mxPoint x="740" y="540" as="targetPoint" />
            <mxPoint x="740" y="570" as="sourcePoint" />
          </mxGeometry>
        </mxCell>
        <mxCell id="KDhxscUa-E_bTq_1S6e4-22" style="edgeStyle=orthogonalEdgeStyle;rounded=0;orthogonalLoop=1;jettySize=auto;html=1;entryX=0;entryY=0.5;entryDx=0;entryDy=0;startArrow=block;startFill=1;endArrow=block;endFill=1;strokeColor=#000000;" edge="1" parent="1" source="KDhxscUa-E_bTq_1S6e4-21" target="KDhxscUa-E_bTq_1S6e4-6">
          <mxGeometry relative="1" as="geometry" />
        </mxCell>
        <mxCell id="KDhxscUa-E_bTq_1S6e4-21" value="LOGGING SYSTEM" style="rounded=1;whiteSpace=wrap;html=1;" vertex="1" parent="1">
          <mxGeometry x="80" y="380" width="120" height="60" as="geometry" />
        </mxCell>
        <mxCell id="KDhxscUa-E_bTq_1S6e4-25" style="edgeStyle=orthogonalEdgeStyle;rounded=0;orthogonalLoop=1;jettySize=auto;html=1;entryX=0;entryY=0.25;entryDx=0;entryDy=0;startArrow=block;startFill=1;endArrow=block;endFill=1;strokeColor=#000000;" edge="1" parent="1" source="KDhxscUa-E_bTq_1S6e4-23" target="KDhxscUa-E_bTq_1S6e4-6">
          <mxGeometry relative="1" as="geometry" />
        </mxCell>
        <mxCell id="KDhxscUa-E_bTq_1S6e4-23" value="PAYMENTS" style="rounded=1;whiteSpace=wrap;html=1;" vertex="1" parent="1">
          <mxGeometry x="80" y="200" width="120" height="60" as="geometry" />
        </mxCell>
        <mxCell id="KDhxscUa-E_bTq_1S6e4-38" style="edgeStyle=orthogonalEdgeStyle;rounded=0;orthogonalLoop=1;jettySize=auto;html=1;entryX=0.461;entryY=1.042;entryDx=0;entryDy=0;entryPerimeter=0;startArrow=block;startFill=1;endArrow=block;endFill=1;strokeColor=#000000;" edge="1" parent="1" source="KDhxscUa-E_bTq_1S6e4-26" target="KDhxscUa-E_bTq_1S6e4-12">
          <mxGeometry relative="1" as="geometry">
            <Array as="points">
              <mxPoint x="135" y="650" />
            </Array>
          </mxGeometry>
        </mxCell>
        <mxCell id="KDhxscUa-E_bTq_1S6e4-26" value="" style="shape=cylinder3;whiteSpace=wrap;html=1;boundedLbl=1;backgroundOutline=1;size=15;" vertex="1" parent="1">
          <mxGeometry x="170" y="610" width="37.5" height="60" as="geometry" />
        </mxCell>
        <mxCell id="KDhxscUa-E_bTq_1S6e4-28" value="" style="shape=flexArrow;endArrow=classic;startArrow=classic;html=1;strokeColor=#000000;" edge="1" parent="1">
          <mxGeometry width="100" height="100" relative="1" as="geometry">
            <mxPoint x="77.6" y="530" as="sourcePoint" />
            <mxPoint x="820" y="530" as="targetPoint" />
          </mxGeometry>
        </mxCell>
        <mxCell id="KDhxscUa-E_bTq_1S6e4-29" value="" style="shape=flexArrow;endArrow=classic;startArrow=classic;html=1;strokeColor=#000000;" edge="1" parent="1">
          <mxGeometry width="100" height="100" relative="1" as="geometry">
            <mxPoint x="430" y="530" as="sourcePoint" />
            <mxPoint x="430" y="471" as="targetPoint" />
            <Array as="points">
              <mxPoint x="430" y="490" />
            </Array>
          </mxGeometry>
        </mxCell>
        <mxCell id="KDhxscUa-E_bTq_1S6e4-37" value="CENTRAL DATABASE" style="text;html=1;strokeColor=none;fillColor=none;align=center;verticalAlign=middle;whiteSpace=wrap;rounded=0;" vertex="1" parent="1">
          <mxGeometry x="415" y="130" width="40" height="20" as="geometry" />
        </mxCell>
        <mxCell id="KDhxscUa-E_bTq_1S6e4-39" value="MICROSERVICE DATABASE" style="text;html=1;strokeColor=none;fillColor=none;align=center;verticalAlign=middle;whiteSpace=wrap;rounded=0;" vertex="1" parent="1">
          <mxGeometry x="168.75" y="680" width="40" height="20" as="geometry" />
        </mxCell>
        <mxCell id="KDhxscUa-E_bTq_1S6e4-40" value="MICROSERVICE" style="rounded=1;whiteSpace=wrap;html=1;" vertex="1" parent="1">
          <mxGeometry x="280" y="575" width="120" height="60" as="geometry" />
        </mxCell>
        <mxCell id="KDhxscUa-E_bTq_1S6e4-41" style="edgeStyle=orthogonalEdgeStyle;rounded=0;orthogonalLoop=1;jettySize=auto;html=1;entryX=0.461;entryY=1.042;entryDx=0;entryDy=0;entryPerimeter=0;startArrow=block;startFill=1;endArrow=block;endFill=1;strokeColor=#000000;" edge="1" parent="1" source="KDhxscUa-E_bTq_1S6e4-42" target="KDhxscUa-E_bTq_1S6e4-40">
          <mxGeometry relative="1" as="geometry">
            <Array as="points">
              <mxPoint x="335" y="655" />
            </Array>
          </mxGeometry>
        </mxCell>
        <mxCell id="KDhxscUa-E_bTq_1S6e4-42" value="" style="shape=cylinder3;whiteSpace=wrap;html=1;boundedLbl=1;backgroundOutline=1;size=15;" vertex="1" parent="1">
          <mxGeometry x="370" y="615" width="37.5" height="60" as="geometry" />
        </mxCell>
        <mxCell id="KDhxscUa-E_bTq_1S6e4-43" value="MICROSERVICE DATABASE" style="text;html=1;strokeColor=none;fillColor=none;align=center;verticalAlign=middle;whiteSpace=wrap;rounded=0;" vertex="1" parent="1">
          <mxGeometry x="368.75" y="685" width="40" height="20" as="geometry" />
        </mxCell>
        <mxCell id="KDhxscUa-E_bTq_1S6e4-44" value="MICROSERVICE" style="rounded=1;whiteSpace=wrap;html=1;" vertex="1" parent="1">
          <mxGeometry x="490" y="575" width="120" height="60" as="geometry" />
        </mxCell>
        <mxCell id="KDhxscUa-E_bTq_1S6e4-45" style="edgeStyle=orthogonalEdgeStyle;rounded=0;orthogonalLoop=1;jettySize=auto;html=1;entryX=0.461;entryY=1.042;entryDx=0;entryDy=0;entryPerimeter=0;startArrow=block;startFill=1;endArrow=block;endFill=1;strokeColor=#000000;" edge="1" parent="1" source="KDhxscUa-E_bTq_1S6e4-46" target="KDhxscUa-E_bTq_1S6e4-44">
          <mxGeometry relative="1" as="geometry">
            <Array as="points">
              <mxPoint x="545" y="655" />
            </Array>
          </mxGeometry>
        </mxCell>
        <mxCell id="KDhxscUa-E_bTq_1S6e4-46" value="" style="shape=cylinder3;whiteSpace=wrap;html=1;boundedLbl=1;backgroundOutline=1;size=15;" vertex="1" parent="1">
          <mxGeometry x="580" y="615" width="37.5" height="60" as="geometry" />
        </mxCell>
        <mxCell id="KDhxscUa-E_bTq_1S6e4-47" value="MICROSERVICE DATABASE" style="text;html=1;strokeColor=none;fillColor=none;align=center;verticalAlign=middle;whiteSpace=wrap;rounded=0;" vertex="1" parent="1">
          <mxGeometry x="578.75" y="685" width="40" height="20" as="geometry" />
        </mxCell>
        <mxCell id="KDhxscUa-E_bTq_1S6e4-48" value="MICROSERVICE" style="rounded=1;whiteSpace=wrap;html=1;" vertex="1" parent="1">
          <mxGeometry x="680" y="575" width="120" height="60" as="geometry" />
        </mxCell>
        <mxCell id="KDhxscUa-E_bTq_1S6e4-49" style="edgeStyle=orthogonalEdgeStyle;rounded=0;orthogonalLoop=1;jettySize=auto;html=1;entryX=0.461;entryY=1.042;entryDx=0;entryDy=0;entryPerimeter=0;startArrow=block;startFill=1;endArrow=block;endFill=1;strokeColor=#000000;" edge="1" parent="1" source="KDhxscUa-E_bTq_1S6e4-50" target="KDhxscUa-E_bTq_1S6e4-48">
          <mxGeometry relative="1" as="geometry">
            <Array as="points">
              <mxPoint x="735" y="655" />
            </Array>
          </mxGeometry>
        </mxCell>
        <mxCell id="KDhxscUa-E_bTq_1S6e4-50" value="" style="shape=cylinder3;whiteSpace=wrap;html=1;boundedLbl=1;backgroundOutline=1;size=15;" vertex="1" parent="1">
          <mxGeometry x="770" y="615" width="37.5" height="60" as="geometry" />
        </mxCell>
        <mxCell id="KDhxscUa-E_bTq_1S6e4-51" value="MICROSERVICE DATABASE" style="text;html=1;strokeColor=none;fillColor=none;align=center;verticalAlign=middle;whiteSpace=wrap;rounded=0;" vertex="1" parent="1">
          <mxGeometry x="768.75" y="685" width="40" height="20" as="geometry" />
        </mxCell>
        <mxCell id="KDhxscUa-E_bTq_1S6e4-52" value="" style="shape=image;verticalLabelPosition=bottom;labelBackgroundColor=#ffffff;verticalAlign=top;aspect=fixed;imageAspect=0;image=data:image/svg+xml,PHN2ZyB4bWxucz0iaHR0cDovL3d3dy53My5vcmcvMjAwMC9zdmciIGlkPSJMYXllcl8xIiBkYXRhLW5hbWU9IkxheWVyIDEiIHZpZXdCb3g9IjAgMCAyMDAgMjAwIiB3aWR0aD0iMjAwIiBoZWlnaHQ9IjIwMCI+PGRlZnM+PHN0eWxlPi5jbHMtMSwuY2xzLTJ7ZmlsbDojNTg1OTViO30uY2xzLTIsLmNscy0ze3N0cm9rZTojZmZmO3N0cm9rZS1taXRlcmxpbWl0OjEwO3N0cm9rZS13aWR0aDozcHg7fS5jbHMtM3tmaWxsOiMwMDliM2U7fS5jbHMtNHtmaWxsOiNmZmY7fTwvc3R5bGU+PC9kZWZzPjxyZWN0IGNsYXNzPSJjbHMtMSIgd2lkdGg9IjIwMCIgaGVpZ2h0PSIyMDAiLz48ZyBpZD0iSWNvbiI+PHBhdGggY2xhc3M9ImNscy0yIiBkPSJNOTIuODYsMTYuMjhIMjIuMjlhNi45MSw2LjkxLDAsMCwwLTYuOSw2LjlWMTc2LjgyYTYuOTEsNi45MSwwLDAsMCw2LjksNi45SDE3NS45M2E2LjkyLDYuOTIsMCwwLDAsNi45MS02LjlWMTA2WiIvPjxwYXRoIGNsYXNzPSJjbHMtMyIgZD0iTTE3NS45MywxNi4yOEgxMTEuNTdsNzEuMjcsNzFWMjMuMThBNi45Miw2LjkyLDAsMCwwLDE3NS45MywxNi4yOFpNMTY1LjA5LDQyLjg2YTguMjMsOC4yMywwLDEsMSw4LjIzLTguMjNBOC4yMyw4LjIzLDAsMCwxLDE2NS4wOSw0Mi44NloiLz48cGF0aCBjbGFzcz0iY2xzLTQiIGQ9Ik05MC45LDEwOS44MmMzLjcsMTMuMzksMi4wNywyNS4xLTQsMzYuMTJhNDIuMzgsNDIuMzgsMCwwLDEtMTkuMjEsMTguMTgsMzUuMywzNS4zLDAsMCwxLTEyLjg2LDMuNGMtMi4zOS4xNy0zLjYzLS43Ni0zLjgyLTIuNzhzMS4xMy0zLjM2LDMuMy0zLjc0YTYyLjM3LDYyLjM3LDAsMCwwLDcuMzMtMS41NWM5LjMyLTIuODcsMTUuODUtOS4xMSwyMC40MS0xNy41M2EzNi45MiwzNi45MiwwLDAsMCw0LjI1LTIyLjUyYy0uOTMtNy41Ni0zLjU0LTE0LjQyLTkuNTMtMTkuNDktOC42NC03LjMxLTIwLjUxLTcuNy0zMC4xLTEuMTYtMTEuMjcsNy42OS0xNi4zNywyMi44MS0xMS44OCwzNS42MywyLjE1LDYuMTQsNiwxMC45MywxMi40LDEzLDcuNywyLjQzLDE0LjQzLjMyLDIwLjItNS4wNSw3LjQzLTYuOTIsOS42NC0xOC42NCw1LjMtMjcuNS00LjEtOC4zOS0xMy43OC0xMC41Mi0yMS4yNi00LjctNi4xNiw0LjgxLTguMjIsMTQuMTYtNC42LDIwLjkxYTgsOCwwLDAsMCwxMi45MywyLjE3QTEwLjE5LDEwLjE5LDAsMCwwLDYyLDEyMS40NWMtLjY5LTEuNDUtMS44LTIuMDgtMy4wOS0xLjc1YTIuODQsMi44NCwwLDAsMC0xLjk1LDMsNi45NCw2Ljk0LDAsMCwwLC4zOCwxLjU5LDMuODIsMy44MiwwLDAsMS0yLjc4LDUsMi40NSwyLjQ1LDAsMCwxLTMtMS40OSwxMC40MywxMC40MywwLDAsMSw2LjU5LTE0LjczLDguMTYsOC4xNiwwLDAsMSw5LjQ3LDQuNTdjNC4zNiw4Ljg3LS4yNiwyMC40Mi05LjUxLDIzLjc1YTEzLjYsMTMuNiwwLDAsMS0xNy4xNC02Ljg3Yy01LjY4LTExLjQ0LS43Ni0yNi4zLDEwLjY0LTMyLjE3LDEwLjQxLTUuMzYsMjIuMTgtMS4zMSwyNi45LDkuNDMsNC40LDEwLDMuMjYsMTkuNzQtMi4yNiwyOWEyOC40LDI4LjQsMCwwLDEtMTgsMTMuNTJjLTExLjczLDIuOTQtMjMuMTUtMy0yOC4yMi0xMy45NC03LjExLTE1LjMtMi4xNy0zNC42NSwxMC42Ny00NS4wOCw5LjgzLTgsMjAuODQtMTAuNDMsMzIuODctNS40OCw2LjkxLDIuODQsMTEuNzcsOCwxNSwxNC42NkM4OS42NywxMDYuNTksOTAuNDYsMTA4Ljc2LDkwLjksMTA5LjgyWiIvPjxwYXRoIGNsYXNzPSJjbHMtNCIgZD0iTTUzLjUyLDgyLjI0Yy0zLjI5LDEuNjYtNi42MiwzLjI1LTkuODcsNS0yLjE0LDEuMTUtMy43NSwxLjEtNC43NS0uNDVhMy42OCwzLjY4LDAsMCwxLDEuMy01YzEzLTguMjUsMjYuNzEtMTAuMTQsNDEtMy41NkM4OSw4MS44Myw5NC42MSw4Ny45LDk4LjczLDk1LjM3QTMuNjMsMy42MywwLDAsMSw5NywxMDAuMTljLTEuNTkuODktMywuNDQtNC4wNy0xLjQ0QTM0Ljc3LDM0Ljc3LDAsMCwwLDgwLjYzLDg1LjgzYTMzLjQzLDMzLjQzLDAsMCwwLTI2Ljk0LTMuMjVaIi8+PC9nPjwvc3ZnPg==;" vertex="1" parent="1">
          <mxGeometry x="80" y="40" width="50" height="50" as="geometry" />
        </mxCell>
        <mxCell id="KDhxscUa-E_bTq_1S6e4-53" value="Text" style="text;html=1;strokeColor=none;fillColor=none;align=center;verticalAlign=middle;whiteSpace=wrap;rounded=0;" vertex="1" parent="1">
          <mxGeometry x="420" y="230" width="40" height="20" as="geometry" />
        </mxCell>
        <mxCell id="KDhxscUa-E_bTq_1S6e4-54" value="r" style="text;html=1;strokeColor=none;fillColor=none;align=center;verticalAlign=middle;whiteSpace=wrap;rounded=0;" vertex="1" parent="1">
          <mxGeometry x="170" y="40" width="130" height="20" as="geometry" />
        </mxCell>
      </root>
    </mxGraphModel>
  </diagram>
</mxfile>
